# xmcd CD database file
#
# Track frame offsets:
#	183
#	57020
#	100428
#	163770
#	214310
#	262128
#
# Disc length: 4122 seconds
#
# Revision: 2
# Processed by: cddbd v1.5.2PL0 Copyright (c) Steve Scherf et al.
# Submitted via: CDex 1.70beta2
#
DISCID=58101806
DTITLE=George Benson - Witchcraft
DYEAR=1989
DGENRE=Jazz
TTITLE0=All Blues
TTITLE1=Witchcraft
TTITLE2=Love For Sale
TTITLE3=Li'll Darlin'
TTITLE4=There Will Never Be Another You
TTITLE5=Oleo
EXTD=YEAR: 1989
EXTT0=
EXTT1=
EXTT2=
EXTT3=
EXTT4=
EXTT5=
PLAYORDER=
